<svg width="638" height="407" viewBox="0 0 638 407" fill="none" xmlns="http://www.w3.org/2000/svg">
<ellipse cx="141" cy="278.5" rx="141" ry="128.5" fill="#6F9EAF"/>
<ellipse cx="512.5" cy="296.5" rx="125.5" ry="95.5" fill="#6F9EAF"/>
<ellipse cx="355.5" cy="166.5" rx="191.5" ry="166.5" fill="#A9294F"/>
<g clip-path="url(#clip0)">
<path d="M385.046 249.969L361.842 235.521C358.429 227.969 352.742 221.258 346.3 217.967C335.858 212.631 327.393 218.295 327.393 230.618C327.393 242.94 335.858 257.255 346.3 262.591C351.248 265.12 355.752 265.175 359.122 263.224L385.046 249.969Z" fill="#23292E"/>
<path d="M469 204.834C469 202.608 468.568 200.402 467.722 198.306L467.526 197.823C464.583 190.543 459.046 184.307 451.744 180.058L425.762 164.941L417.45 146.975C411.048 133.136 399.66 121.558 385.056 114.036C365.848 104.142 343.259 100.701 321.419 104.343L307.221 106.709L300.246 105.737C298.535 105.499 296.888 105.781 295.487 106.438C295.351 106.501 295.222 106.574 295.09 106.644L212.004 149.798C209.641 150.937 208 153.152 208 155.753V162.593C208 169.667 212.267 176.202 219.191 179.734L242.817 205.439C255.91 203.301 269.435 205.357 280.97 211.24L381.502 262.51C381.987 262.759 382.503 262.854 383.001 262.829C383.001 262.829 383.451 262.783 383.62 262.739L386.691 262.249C407.605 258.911 427.667 252.265 445.915 242.629C456.503 237.036 464.557 228.371 468.737 218.119C468.805 217.992 468.863 217.86 468.906 217.719C468.936 217.643 468.97 217.569 469 217.493L468.968 217.455C468.988 217.336 469 217.213 469 217.088V204.834Z" fill="#7192C4"/>
<path d="M384.474 241.469C381.545 234.121 375.98 227.833 368.636 223.559L342.357 208.269L334.478 191.237C327.841 176.891 316.18 164.697 300.967 157.015C281.908 147.391 259.596 144.074 238.014 147.671L223.817 150.038L216.841 149.065C212.198 148.416 208 151.592 208 155.753V162.593C208 169.667 212.267 176.202 219.191 179.734L242.817 205.439C255.91 203.301 269.435 205.357 280.97 211.24L381.502 262.51C383.322 263.439 385.596 262.276 385.596 260.416V247.609C385.596 245.522 385.259 243.436 384.474 241.469V241.469Z" fill="#304E75"/>
<path d="M365.207 249.941C365.207 262.263 356.742 267.926 346.3 262.591C335.858 257.255 327.393 242.94 327.393 230.618C327.393 218.295 335.858 212.631 346.3 217.967C356.742 223.302 365.207 237.618 365.207 249.941Z" fill="#2E373D"/>
<path d="M355.595 245.029C355.595 251.088 351.433 253.873 346.3 251.248C341.166 248.624 337.003 241.587 337.003 235.53C337.003 229.471 341.164 226.686 346.3 229.308C351.433 231.933 355.595 238.97 355.595 245.029Z" fill="#CECECE"/>
<path d="M351.342 242.854C351.342 246.141 349.084 247.651 346.3 246.229C343.516 244.805 341.258 240.988 341.258 237.703C341.258 234.416 343.514 232.905 346.3 234.329C349.084 235.752 351.342 239.569 351.342 242.854V242.854Z" fill="#627681"/>
<path d="M249.815 191.687C249.815 204.009 241.35 209.674 230.908 204.337C220.467 199.002 212.002 184.688 212.002 172.366C212.002 160.043 220.467 154.379 230.908 159.715C241.352 165.05 249.815 179.366 249.815 191.687Z" fill="#2E373D"/>
<path d="M240.205 186.777C240.205 192.836 236.043 195.62 230.91 192.996C225.774 190.374 221.612 183.335 221.612 177.276C221.612 171.218 225.774 168.432 230.91 171.056C236.043 173.68 240.205 180.717 240.205 186.777Z" fill="#CECECE"/>
<path d="M235.951 184.604C235.951 187.889 233.693 189.399 230.91 187.977C228.124 186.553 225.868 182.735 225.868 179.45C225.868 176.163 228.124 174.653 230.91 176.077C233.693 177.499 235.951 181.317 235.951 184.604Z" fill="#627681"/>
<path d="M391.607 225.241C395.817 230.17 397.82 237.121 396.08 240.769C394.337 244.416 389.512 243.377 385.303 238.45C381.091 233.522 379.088 226.57 380.83 222.923C382.571 219.275 387.396 220.313 391.607 225.241V225.241Z" fill="white"/>
<path d="M460.517 189.672C464.729 194.602 466.732 201.552 464.99 205.201C463.249 208.847 458.424 207.809 454.213 202.881C450.003 197.954 448 191.001 449.74 187.355C451.483 183.707 456.308 184.745 460.517 189.672Z" fill="white"/>
<path d="M347.807 205.439L421.291 167.263L406.458 140.244C403.854 135.502 397.274 133.681 392.083 136.265L341.121 161.634C333.414 165.471 330.425 173.962 334.308 180.991L347.807 205.439Z" fill="#304E75"/>
<path d="M336.007 204.547L326.564 188.906C317.918 174.584 304.376 163.051 287.876 155.956C273.77 149.89 257.184 150.413 243.604 157.353L336.007 204.547Z" fill="#243B58"/>
<path d="M415.502 163.91L406.06 148.27C403.222 143.568 399.809 139.203 395.984 135.16C394.652 135.294 393.328 135.644 392.083 136.265L376.533 144.005L415.502 163.91Z" fill="#59718B"/>
<path d="M254.558 199.305L252.109 173.606L279.148 187.423L263.652 183.67L264.528 197.756L280.269 204.547L254.558 199.305Z" fill="#23292E"/>
<path d="M290.986 99.0008L286.956 98.3839L286.952 98.3857C280.807 97.4516 274.309 98.3592 268.59 101.281L223.858 124.139C213.655 129.353 211.417 141.534 219.225 149.34L223.817 150.036L307.221 106.709C302.848 102.434 297.072 99.815 290.986 99.0008V99.0008Z" fill="#304E75"/>
<path d="M223.817 150.038C216.009 142.232 218.247 130.051 228.448 124.836L273.182 101.977C284.371 96.2602 298.551 98.2324 307.221 106.708L223.817 150.038Z" fill="#4D7EB7"/>
</g>
<defs>
<clipPath id="clip0">
<rect width="261" height="231" fill="white" transform="translate(208 66)"/>
</clipPath>
</defs>
</svg>
